<?xml version="1.0" standalone="no"?>
<?xml-stylesheet href="https://github.com/iamazy/elasticsql/blob/master/data/css/light.css" type="text/css"?>
<!DOCTYPE svg PUBLIC "-//W3C//DTD SVG 1.1//EN" "http://www.w3.org/Graphics/SVG/1.1/DTD/svg11.dtd">
<svg xmlns="http://www.w3.org/2000/svg" class="railroad-diagram" width="648" height="110" viewBox="0 0 648 110"><g transform="translate(.5 .5)"><path d="M 20 45 v 20 m 0 -10 h 20.5"></path><g><path d="M40 55h0"></path><path d="M608 55h0"></path><path d="M40 55h20"></path><g><path d="M60 55h0"></path><path d="M588 55h0"></path><g class="terminal"><path d="M60 55h0"></path><path d="M146 55h0"></path><rect x="60" y="44" width="86" height="22" rx="0" ry="0"></rect><text x="103" y="59">ROUTING</text></g><path d="M146 55h10"></path><path d="M156 55h10"></path><g class="terminal"><path d="M166 55h0"></path><path d="M212 55h0"></path><rect x="166" y="44" width="46" height="22" rx="0" ry="0"></rect><text x="189" y="59">BY</text></g><path d="M212 55h10"></path><path d="M222 55h10"></path><g class="terminal"><path d="M232 55h0"></path><path d="M310 55h0"></path><rect x="232" y="44" width="78" height="22" rx="0" ry="0"></rect><text x="271" y="59">STRING</text></g><path d="M310 55h10"></path><g><path d="M320 55h0"></path><path d="M588 55h0"></path><path d="M320 55a10 10 0 0 0 10 -10v-15a10 10 0 0 1 10 -10"></path><g><path d="M340 20h228"></path></g><path d="M568 20a10 10 0 0 1 10 10v15a10 10 0 0 0 10 10"></path><path d="M320 55h20"></path><g><path d="M340 55h0"></path><path d="M568 55h0"></path><path d="M340 55h10"></path><g><path d="M350 55h0"></path><path d="M558 55h0"></path><path d="M350 55h20"></path><g><path d="M370 55h0"></path><path d="M538 55h0"></path><g class="terminal"><path d="M370 55h0"></path><path d="M440 55h0"></path><rect x="370" y="44" width="70" height="22" rx="0" ry="0"></rect><text x="405" y="59">COMMA</text></g><path d="M440 55h10"></path><path d="M450 55h10"></path><g class="terminal"><path d="M460 55h0"></path><path d="M538 55h0"></path><rect x="460" y="44" width="78" height="22" rx="0" ry="0"></rect><text x="499" y="59">STRING</text></g></g><path d="M538 55h20"></path></g><path d="M558 55h10"></path><path d="M350 55a10 10 0 0 0 -10 10v15a10 10 0 0 0 10 10"></path><g><path d="M350 90h208"></path></g><path d="M558 90a10 10 0 0 0 10 -10v-15a10 10 0 0 0 -10 -10"></path></g><path d="M568 55h20"></path></g></g><path d="M588 55h20"></path></g><path d="M 608 55 h 20 m 0 -10 v 20"></path></g></svg>